<?xml version="1.0" encoding="UTF-8" standalone="no"?>
<!-- Created with Inkscape (http://www.inkscape.org/) -->

<svg
   width="30.297285mm"
   height="30.297281mm"
   viewBox="0 0 30.297285 30.297281"
   version="1.1"
   id="svg1"
   inkscape:version="1.4 (e7c3feb1, 2024-10-09)"
   sodipodi:docname="fairdevices-logo-tree_textAsPath.svg"
   inkscape:export-filename="fairdevices-logo-tree_150dpi.png"
   inkscape:export-xdpi="150"
   inkscape:export-ydpi="150"
   xmlns:inkscape="http://www.inkscape.org/namespaces/inkscape"
   xmlns:sodipodi="http://sodipodi.sourceforge.net/DTD/sodipodi-0.dtd"
   xmlns="http://www.w3.org/2000/svg"
   xmlns:svg="http://www.w3.org/2000/svg">
  <sodipodi:namedview
     id="namedview1"
     pagecolor="#ffffff"
     bordercolor="#666666"
     borderopacity="1.0"
     inkscape:showpageshadow="2"
     inkscape:pageopacity="0.0"
     inkscape:pagecheckerboard="0"
     inkscape:deskcolor="#d1d1d1"
     inkscape:document-units="mm"
     inkscape:zoom="2.2877104"
     inkscape:cx="56.606815"
     inkscape:cy="57.262493"
     inkscape:window-width="1528"
     inkscape:window-height="861"
     inkscape:window-x="0"
     inkscape:window-y="44"
     inkscape:window-maximized="0"
     inkscape:current-layer="svg1"
     showgrid="false" />
  <defs
     id="defs1">
    <rect
       x="316.47363"
       y="493.0694"
       width="175.28442"
       height="148.18309"
       id="rect9" />
    <rect
       x="75.590553"
       y="188.97636"
       width="76.054169"
       height="22.531464"
       id="rect7" />
  </defs>
  <rect
     style="fill:#ffffff;fill-opacity:1;stroke:#000000;stroke-width:0.297285;stroke-linecap:round;stroke-linejoin:round;stroke-dasharray:none;stroke-opacity:1"
     id="rect8"
     width="30"
     height="29.999996"
     x="90.106972"
     y="133.49864"
     ry="2.4999979"
     transform="translate(-89.958328,-133.35)" />
  <g
     inkscape:label="Ebene 1"
     inkscape:groupmode="layer"
     id="layer1"
     transform="translate(-89.958329,-133.35)">
    <path
       style="fill:none;fill-opacity:1;stroke:#000000;stroke-width:0.499999;stroke-linecap:round;stroke-linejoin:round;stroke-dasharray:none"
       d="m 97.606973,142.24864 3.749997,3.75 v 7.5"
       id="path2"
       sodipodi:nodetypes="ccc" />
    <path
       style="fill:none;fill-opacity:1;stroke:#000000;stroke-width:0.499999;stroke-linecap:round;stroke-linejoin:round;stroke-dasharray:none"
       d="m 102.60697,138.49864 1.25,3.75 v 13.75"
       id="path5"
       sodipodi:nodetypes="ccc" />
    <path
       style="fill:none;fill-opacity:1;stroke:#000000;stroke-width:0.499999;stroke-linecap:round;stroke-linejoin:round;stroke-dasharray:none"
       d="m 107.60697,139.74864 -1.25,5 v 11.25"
       id="path6"
       sodipodi:nodetypes="ccc" />
    <path
       style="fill:none;fill-opacity:1;stroke:#000000;stroke-width:0.499999;stroke-linecap:round;stroke-linejoin:round;stroke-dasharray:none"
       d="m 112.60697,144.74864 -3.75,3.75 v 5"
       id="path7"
       sodipodi:nodetypes="ccc" />
    <circle
       style="fill:#34fa75;fill-opacity:1;stroke:#000000;stroke-width:0.514164;stroke-linecap:round;stroke-linejoin:round;stroke-dasharray:none"
       id="path1-7"
       cx="112.60697"
       cy="144.74864"
       r="1.742918" />
    <circle
       style="fill:#d4d230;fill-opacity:1;stroke:#000000;stroke-width:0.514164;stroke-linecap:round;stroke-linejoin:round;stroke-dasharray:none"
       id="path1-2"
       cx="107.60697"
       cy="139.74864"
       r="1.742918" />
    <circle
       style="fill:#d444d5;fill-opacity:1;stroke:#000000;stroke-width:0.514164;stroke-linecap:round;stroke-linejoin:round;stroke-dasharray:none;stroke-opacity:1"
       id="path1-5"
       cx="97.606972"
       cy="142.24864"
       r="1.742918" />
    <circle
       style="fill:#3ad2d5;fill-opacity:1;stroke:#000000;stroke-width:0.514164;stroke-linecap:round;stroke-linejoin:round;stroke-dasharray:none"
       id="path1"
       cx="102.60697"
       cy="138.49864"
       r="1.742918" />
    <g
       id="text7"
       style="font-weight:300;font-size:17.3333px;font-family:Ubuntu;-inkscape-font-specification:'Ubuntu Light';white-space:pre;fill:#d4d2d5;stroke:#000000;stroke-width:0.755906;stroke-linecap:round;stroke-linejoin:round"
       transform="matrix(0.26458333,0,0,0.26458333,75.234053,105.94299)"
       aria-label="fairdevices">
      <path
         style="font-weight:bold;font-stretch:condensed;font-family:Roboto;-inkscape-font-specification:'Roboto Bold Condensed';fill:#000000;stroke:none"
         d="m 79.406894,204.79026 h -2.378251 v -9.95311 q 0,-1.05794 0.363932,-1.76888 0.363931,-0.71093 1.024086,-1.08333 0.668619,-0.37239 1.582679,-0.37239 0.296224,0 0.558593,0.0508 0.270833,0.0423 0.524739,0.11849 l -0.02539,1.88737 q -0.110026,-0.0339 -0.262369,-0.0508 -0.152344,-0.0169 -0.321614,-0.0169 -0.338541,0 -0.583983,0.14388 -0.236979,0.14388 -0.363932,0.41471 -0.118489,0.27083 -0.118489,0.67708 z m 1.430335,-9.15754 v 1.78581 h -4.925771 v -1.78581 z m 5.348949,7.05012 v -4.23176 q 0,-0.41472 -0.101563,-0.66016 -0.0931,-0.24544 -0.28776,-0.35547 -0.186197,-0.11849 -0.45703,-0.11849 -0.304687,0 -0.507811,0.12696 -0.203125,0.12695 -0.304687,0.36393 -0.0931,0.23698 -0.0931,0.56706 h -2.378251 q 0,-0.59245 0.228515,-1.11719 0.228516,-0.5332 0.668619,-0.93099 0.448567,-0.40625 1.066404,-0.63476 0.617837,-0.22852 1.388018,-0.22852 0.914061,0 1.624997,0.31315 0.710936,0.30469 1.125649,0.97331 0.414713,0.66862 0.414713,1.73502 v 4.07942 q 0,0.77018 0.07617,1.2526 0.08464,0.48242 0.245443,0.82943 v 0.14388 H 86.50779 q -0.160807,-0.38086 -0.245443,-0.94792 -0.07617,-0.57552 -0.07617,-1.1595 z m 0.287759,-3.48697 0.0085,1.42187 h -0.871743 q -0.338541,0 -0.592447,0.11003 -0.245442,0.11002 -0.414713,0.31315 -0.16927,0.19466 -0.253905,0.45703 -0.07617,0.26237 -0.07617,0.55859 0,0.33008 0.0931,0.55859 0.0931,0.22852 0.279296,0.34701 0.186198,0.11849 0.440103,0.11849 0.389322,0 0.677082,-0.16081 0.28776,-0.16081 0.423177,-0.38932 0.143879,-0.22852 0.0931,-0.42318 l 0.541666,0.92252 q -0.101562,0.31315 -0.279296,0.6517 -0.169271,0.33854 -0.43164,0.6263 -0.262369,0.28776 -0.651692,0.47395 -0.380858,0.17774 -0.905597,0.17774 -0.736327,0 -1.3457,-0.33854 -0.609374,-0.33854 -0.964842,-0.94792 -0.347005,-0.60937 -0.347005,-1.44726 0,-0.69401 0.220052,-1.2526 0.228515,-0.56706 0.677082,-0.95638 0.448567,-0.39779 1.134112,-0.60937 0.685546,-0.21159 1.60807,-0.21159 z m 6.330718,-3.56315 v 9.15754 h -2.378251 v -9.15754 z m -2.488277,-2.37825 q 0,-0.55013 0.347005,-0.90559 0.355468,-0.35547 0.956378,-0.35547 0.592447,0 0.939451,0.35547 0.347005,0.35546 0.347005,0.90559 0,0.55013 -0.347005,0.91406 -0.347004,0.35547 -0.939451,0.35547 -0.60091,0 -0.956378,-0.35547 -0.347005,-0.36393 -0.347005,-0.91406 z m 6.736966,4.41796 v 7.11783 h -2.369787 v -9.15754 h 2.234371 z m 2.158199,-2.10742 -0.03385,2.36133 q -0.160807,-0.0339 -0.389322,-0.0508 -0.220052,-0.0169 -0.389322,-0.0169 -0.397786,0 -0.677082,0.12695 -0.279297,0.11849 -0.465494,0.36393 -0.177734,0.23698 -0.270833,0.59245 -0.0931,0.35547 -0.110026,0.80404 l -0.448567,-0.16927 q 0,-0.89714 0.135417,-1.64193 0.14388,-0.75325 0.423176,-1.30338 0.279296,-0.55859 0.668618,-0.86328 0.397786,-0.30469 0.897134,-0.30469 0.169271,0 0.355468,0.0339 0.194661,0.0254 0.304687,0.0677 z"
         id="path4" />
      <path
         style="font-weight:normal;font-stretch:condensed;font-family:Roboto;-inkscape-font-specification:'Roboto Condensed';fill:#000000;stroke:none"
         d="m 105.46609,203.01292 v -11.22264 h 1.48958 v 12.99998 h -1.36263 z m -5.12043,-2.36133 v -0.85481 q 0,-1.13412 0.22005,-1.94661 0.22005,-0.82097 0.6263,-1.3457 0.40625,-0.53321 0.9733,-0.78711 0.56706,-0.25391 1.2526,-0.25391 0.71094,0 1.21875,0.28776 0.51628,0.28776 0.86328,0.83789 0.34701,0.54167 0.54167,1.32031 0.20312,0.77018 0.27083,1.74349 v 1.14257 q -0.0762,0.96485 -0.2793,1.73503 -0.19466,0.77018 -0.54166,1.31184 -0.34701,0.54167 -0.86328,0.82943 -0.51628,0.28776 -1.22721,0.28776 -0.67708,0 -1.23568,-0.26237 -0.55859,-0.27083 -0.9733,-0.80404 -0.40625,-0.54166 -0.6263,-1.3457 -0.22005,-0.8125 -0.22005,-1.89583 z m 1.49804,-0.85481 v 0.85481 q 0,0.76172 0.11002,1.32878 0.11003,0.55859 0.34701,0.93098 0.23698,0.36394 0.60091,0.54167 0.37239,0.17773 0.88867,0.17773 0.6263,0 1.02409,-0.30468 0.39778,-0.30469 0.63476,-0.80404 0.24544,-0.50781 0.38932,-1.09179 v -2.40364 q -0.0846,-0.43164 -0.24544,-0.82943 -0.16081,-0.40625 -0.40625,-0.7194 -0.23698,-0.32161 -0.58398,-0.50781 -0.33854,-0.1862 -0.79557,-0.1862 -0.51628,0 -0.89714,0.1862 -0.37239,0.1862 -0.60937,0.55859 -0.22852,0.3724 -0.34701,0.93945 -0.11002,0.56706 -0.11002,1.32878 z m 10.6979,5.16275 q -0.82096,0 -1.48112,-0.24544 -0.66015,-0.24545 -1.12565,-0.74479 -0.46549,-0.50782 -0.71093,-1.278 -0.24545,-0.77018 -0.24545,-1.81965 v -1.03256 q 0,-1.21028 0.2793,-2.04817 0.28776,-0.83789 0.77018,-1.3457 0.48242,-0.51627 1.09179,-0.74479 0.60938,-0.23698 1.25261,-0.23698 0.86328,0 1.47265,0.2793 0.60937,0.2793 0.99023,0.82942 0.38086,0.55013 0.5586,1.35417 0.18619,0.80403 0.18619,1.85351 v 0.87174 h -5.72134 v -1.27799 h 4.2233 v -0.21159 q -0.0339,-0.71093 -0.19466,-1.2526 -0.15235,-0.54166 -0.50781,-0.84635 -0.35547,-0.31315 -1.00716,-0.31315 -0.41472,0 -0.77018,0.14388 -0.34701,0.13541 -0.60091,0.48242 -0.24545,0.33854 -0.38933,0.93945 -0.13541,0.60091 -0.13541,1.52343 v 1.03256 q 0,0.73632 0.13541,1.26952 0.14388,0.52474 0.41472,0.87175 0.27929,0.33854 0.67708,0.50781 0.40625,0.16081 0.92252,0.16081 0.75326,0 1.24414,-0.28776 0.49088,-0.29623 0.85482,-0.75326 l 0.7871,0.93945 q -0.24544,0.34701 -0.64322,0.66862 -0.38933,0.31315 -0.96485,0.51628 -0.56705,0.19466 -1.36262,0.19466 z m 7.10936,-1.58268 1.96354,-7.74413 h 1.52343 l -2.71679,9.15754 h -0.99023 z m -1.58268,-7.74413 2.04817,7.78645 0.16081,1.37109 h -0.98177 l -2.75065,-9.15754 z m 8.23501,0 v 9.15754 h -1.48958 v -9.15754 z m -1.57422,-2.42903 q 0,-0.38086 0.21159,-0.64323 0.21159,-0.26237 0.63476,-0.26237 0.42318,0 0.63477,0.26237 0.22005,0.26237 0.22005,0.64323 0,0.36393 -0.22005,0.6263 -0.21159,0.25391 -0.63477,0.25391 -0.42317,0 -0.63476,-0.25391 -0.21159,-0.26237 -0.21159,-0.6263 z m 7.11783,10.47785 q 0.44856,0 0.81249,-0.17774 0.3724,-0.1862 0.60938,-0.57552 0.23698,-0.39778 0.27083,-1.03255 h 1.40495 q -0.0339,0.91406 -0.4655,1.60807 -0.42317,0.68555 -1.11718,1.07487 -0.68555,0.38086 -1.51497,0.38086 -0.88868,0 -1.54883,-0.28776 -0.65169,-0.28776 -1.08333,-0.82943 -0.42318,-0.55013 -0.63477,-1.32877 -0.21158,-0.78711 -0.21158,-1.7858 v -1.03255 q 0,-0.9987 0.21158,-1.77735 0.21159,-0.7871 0.63477,-1.32877 0.43164,-0.55013 1.08333,-0.83789 0.66015,-0.28776 1.54883,-0.28776 0.93098,0 1.60806,0.39779 0.68555,0.38932 1.06641,1.13411 0.38932,0.73633 0.42318,1.7858 h -1.40495 q -0.0339,-0.67708 -0.24544,-1.12564 -0.21159,-0.45703 -0.57552,-0.67709 -0.36393,-0.22851 -0.87174,-0.22851 -0.59245,0 -0.98177,0.21159 -0.38086,0.20312 -0.60091,0.59244 -0.22006,0.38933 -0.31315,0.93099 -0.0846,0.54167 -0.0846,1.21029 v 1.03255 q 0,0.66861 0.0846,1.21874 0.0931,0.54167 0.30468,0.93099 0.22005,0.38932 0.60938,0.60091 0.38932,0.20313 0.98177,0.20313 z m 8.10805,1.27799 q -0.82096,0 -1.48111,-0.24544 -0.66016,-0.24545 -1.12565,-0.74479 -0.4655,-0.50782 -0.71094,-1.278 -0.24544,-0.77018 -0.24544,-1.81965 v -1.03256 q 0,-1.21028 0.2793,-2.04817 0.28776,-0.83789 0.77018,-1.3457 0.48242,-0.51627 1.09179,-0.74479 0.60938,-0.23698 1.2526,-0.23698 0.86328,0 1.47266,0.2793 0.60937,0.2793 0.99023,0.82942 0.38086,0.55013 0.55859,1.35417 0.1862,0.80403 0.1862,1.85351 v 0.87174 h -5.72134 v -1.27799 h 4.2233 v -0.21159 q -0.0339,-0.71093 -0.19467,-1.2526 -0.15234,-0.54166 -0.50781,-0.84635 -0.35547,-0.31315 -1.00716,-0.31315 -0.41471,0 -0.77018,0.14388 -0.347,0.13541 -0.60091,0.48242 -0.24544,0.33854 -0.38932,0.93945 -0.13542,0.60091 -0.13542,1.52343 v 1.03256 q 0,0.73632 0.13542,1.26952 0.14388,0.52474 0.41471,0.87175 0.2793,0.33854 0.67708,0.50781 0.40625,0.16081 0.92253,0.16081 0.75325,0 1.24414,-0.28776 0.49088,-0.29623 0.85481,-0.75326 l 0.78711,0.93945 q -0.24544,0.34701 -0.64323,0.66862 -0.38932,0.31315 -0.96484,0.51628 -0.56705,0.19466 -1.36263,0.19466 z m 9.29295,-2.51367 q 0,-0.347 -0.16927,-0.60937 -0.16927,-0.26237 -0.55859,-0.50781 -0.38086,-0.24545 -1.03255,-0.52474 -0.63477,-0.26237 -1.14258,-0.51628 -0.49935,-0.26237 -0.84635,-0.56705 -0.347,-0.30469 -0.5332,-0.70248 -0.17774,-0.40625 -0.17774,-0.95638 0,-0.55012 0.20313,-1.01562 0.21159,-0.47396 0.59244,-0.82942 0.38086,-0.35547 0.91407,-0.55013 0.5332,-0.20313 1.19335,-0.20313 0.93945,0 1.59961,0.36393 0.66015,0.36394 1.00716,0.9987 0.35547,0.6263 0.35547,1.41341 h -1.48958 q 0,-0.38086 -0.16927,-0.7194 -0.16927,-0.33854 -0.49935,-0.55013 -0.33008,-0.22005 -0.80404,-0.22005 -0.49935,0 -0.8125,0.17773 -0.31315,0.17774 -0.45703,0.4655 -0.13541,0.27929 -0.13541,0.61783 0,0.25391 0.0677,0.44011 0.0762,0.17773 0.2539,0.33854 0.17774,0.15234 0.48242,0.32161 0.31315,0.16081 0.79557,0.3724 0.93099,0.36393 1.56576,0.73632 0.63476,0.3724 0.96484,0.87175 0.33008,0.49934 0.33008,1.23567 0,0.60091 -0.22006,1.0918 -0.21158,0.48242 -0.60937,0.82942 -0.39779,0.34701 -0.95638,0.5332 -0.55013,0.17774 -1.23567,0.17774 -1.03255,0 -1.75195,-0.40625 -0.71094,-0.41471 -1.08333,-1.07487 -0.36394,-0.66862 -0.36394,-1.43033 h 1.49805 q 0.0254,0.64322 0.28776,0.99869 0.27083,0.35547 0.65169,0.49089 0.38086,0.13541 0.76172,0.13541 0.49934,0 0.83789,-0.14388 0.33854,-0.15234 0.50781,-0.43164 0.17773,-0.27929 0.17773,-0.65169 z"
         id="path8" />
    </g>
    <text
       xml:space="preserve"
       transform="scale(0.26458333)"
       id="text8"
       style="font-size:40px;line-height:1.25;font-family:sans-serif;white-space:pre;shape-inside:url(#rect9);display:inline" />
  </g>
</svg>
